# xmcd
#
# Track frame offsets:
#	150
#	15194
#	32529
#	46497
#	61679
#	70829
#	85260
#	98481
#	115364
#	125736
#	137223
#
# Disc length: 1974 seconds
# Revision: 0
# Processed by: cddbd v1.5.2PL0 Copyright (c) Steve Scherf et al.
# Submitted via: dBpowerAMP V12.0
#
DISCID=8907b40b
DTITLE=Travers Chandler - Archaic
DYEAR=2016
DGENRE=Country
TTITLE0=Shot Man Blues
TTITLE1=In the Shadow of a Lie
TTITLE2=Ramblin' Fever
TTITLE3=The Many Faces of Charles Edward Brown
TTITLE4=Brown Hill
TTITLE5=Until Tomorrow
TTITLE6=Uptown Blues
TTITLE7=Portrait of Sin
TTITLE8=High Society
TTITLE9=Mother Knows Best
TTITLE10=Rover Rover
EXTD=
EXTT0=
EXTT1=
EXTT2=
EXTT3=
EXTT4=
EXTT5=
EXTT6=
EXTT7=
EXTT8=
EXTT9=
EXTT10=
PLAYORDER=
